<svg xmlns="http://www.w3.org/2000/svg" fill="none" viewBox="0 0 96 96">
    <path d="m92,14v16c0,2.21-1.79,4-4,4s-4-1.79-4-4v-6c0-1.66-1.34-3-3-3s-3,1.34-3,3v29c0,2.21-1.79,4-4,4s-4-1.79-4-4v-2c0-1.66-1.34-3-3-3s-3,1.34-3,3v16c0,2.21-1.79,4-4,4s-4-1.79-4-4v-6c0-1.66-1.34-3-3-3s-3,1.34-3,3v23c0,2.21-1.79,4-4,4s-4-1.79-4-4v-16c0-1.66-1.34-3-3-3s-3,1.34-3,3v-1c0,2.21-1.79,4-4,4s-4-1.79-4-4v-9c0-2.21,1.79-4,4-4s4,1.79,4,4c0,1.66,1.34,3,3,3s3-1.34,3-3v-10c0-2.21,1.79-4,4-4s4,1.79,4,4v3c0,1.66,1.34,3,3,3s3-1.34,3-3v-13c0-2.21,1.79-4,4-4s4,1.79,4,4v3c0,1.66,1.34,3,3,3s3-1.34,3-3v-14c0-1.66-1.34-3-3-3s-3,1.34-3,3v-1c0,2.21-1.79,4-4,4s-4-1.79-4-4v-6c0-1.66-1.34-3-3-3s-3,1.34-3,3v6c0,2.21-1.79,4-4,4s-4-1.79-4-4v-2c0-1.66-1.34-3-3-3s-3,1.34-3,3v22c0,2.21-1.79,4-4,4s-4-1.79-4-4v-2c0-1.66-1.34-3-3-3s-3,1.34-3,3v10c0,2.21-1.79,4-4,4s-4-1.79-4-4v-17c0-1.66-1.34-3-3-3s-3,1.34-3,3v3c0,2.21-1.79,4-4,4s-4-1.79-4-4v-16c0-2.21,1.79-4,4-4s4,1.79,4,4v3c0,1.66,1.34,3,3,3s3-1.34,3-3V4c0-2.21,1.79-4,4-4s4,1.79,4,4v30c0,1.66,1.34,3,3,3s3-1.34,3-3V4c0-2.21,1.79-4,4-4s4,1.79,4,4v10c0,1.66,1.34,3,3,3s3-1.34,3-3v-4c0-2.21,1.79-4,4-4s4,1.79,4,4c0,1.66,1.34,3,3,3s3-1.34,3-3v-6c0-2.21,1.79-4,4-4s4,1.79,4,4v13c0,1.66,1.34,3,3,3s3-1.34,3-3V4c0-2.21,1.79-4,4-4s4,1.79,4,4v10c0,1.66,1.34,3,3,3s3-1.34,3-3c0-2.21,1.79-4,4-4s4,1.79,4,4ZM4,17c2.21,0,4-1.79,4-4s-1.79-4-4-4S0,10.79,0,13s1.79,4,4,4Zm42,24c2.21,0,4-1.79,4-4s-1.79-4-4-4-4,1.79-4,4,1.79,4,4,4Zm42-4c-2.21,0-4,1.79-4,4s1.79,4,4,4,4-1.79,4-4-1.79-4-4-4Z" fill="url(#linear)"/>
    <defs>
        <linearGradient id="linear" x1="100%" y1="50%" x2="0%" y2="50%"
          gradientUnits="userSpaceOnUse">
          <stop offset="0.0416667" stop-color="#F2E3BB" />
          <stop offset="0.498667" stop-color="#67CDD3" />
          <stop offset="1" stop-color="#00D2FF" />
        </linearGradient>
    </defs>
</svg>